<?xml version="1.0" encoding="UTF-8"?>
<svg width="100px" height="98px" viewBox="0 0 100 98" version="1.1" xmlns="http://www.w3.org/2000/svg" xmlns:xlink="http://www.w3.org/1999/xlink">
    <title>Page 1</title>
    <g id="Page-1" stroke="none" stroke-width="1" fill="none" fill-rule="evenodd">
        <rect id="Rectangle" fill="#FFFFFF" x="15" y="9" width="70" height="70"></rect>
        <g id="mark" fill="#2989CB" fill-rule="nonzero">
            <path d="M68.6214084,70.4082049 C71.9862972,68.1200501 74.6850251,65.1929873 76.7176471,61.6269634 C79.2588362,57.168711 80.5294118,52.0507141 80.5294118,46.2728191 C80.5294118,40.423592 79.2588362,35.2877623 76.7176471,30.865176 C74.1764579,26.4425897 70.5941408,23.0187033 65.9705882,20.593414 C61.3470357,18.1681247 56.0353241,16.9554983 50.0352941,16.9554983 C43.9646755,16.9554983 38.6176702,18.1681247 33.9941176,20.593414 C29.3705651,23.0187033 25.788248,26.4425897 23.2470588,30.865176 C20.7058696,35.2877623 19.4352941,40.423592 19.4352941,46.2728191 C19.4352941,52.0507141 20.7058696,57.168711 23.2470588,61.6269634 C25.3350103,65.2900572 28.1258251,68.2789304 31.6195628,70.5936406 L42.1475866,60.0656169 C41.272161,59.4725021 40.4602211,58.7624798 39.7117647,57.9355489 C37.0646926,55.0109353 35.7411765,51.1947286 35.7411765,46.4868141 C35.7411765,41.7788996 37.0646926,37.9626929 39.7117647,35.0380793 C42.3588368,32.1134658 45.7999788,30.651181 50.0352941,30.651181 C54.2000208,30.651181 57.6058691,32.1134658 60.2529412,35.0380793 C62.9000132,37.9626929 64.2235294,41.7788996 64.2235294,46.4868141 C64.2235294,51.1947286 62.9000132,55.0109353 60.2529412,57.9355489 C59.5814761,58.6774161 58.8611874,59.3251896 58.0920736,59.8788702 L68.6214084,70.4082049 Z M99.9659946,47.2363415 C99.9886649,47.9304376 100,48.630898 100,49.3377227 C100,58.7950899 97.9202981,67.1723235 93.7608319,74.4696747 C89.6013657,81.7670259 83.7377617,87.4296855 76.169844,91.4578234 C68.6019263,95.4859613 59.907617,97.5 50.0866551,97.5 C40.1501525,97.5 31.3980737,95.4859613 23.830156,91.4578234 C16.2622383,87.4296855 10.3986343,81.7670259 6.23916811,74.4696747 C2.07970191,67.1723235 0,58.7950899 0,49.3377227 C0,48.6298156 0.0113698715,47.9282923 0.0341096397,47.2331528 C0.0120947501,47.1765933 0,47.1155455 0,47.0525712 L0,0 L99.5091155,0 C99.7802235,0 100,0.233437435 100,0.501882655 L100,47.0525712 C100,47.117438 99.9879396,47.1794305 99.9659946,47.2363415 Z" id="Combined-Shape"></path>
        </g>
    </g>
</svg>